# xmcd
# Track frame offsets:
# 150
# 13877
# 28484
# 43583
# 57008
# 67160
# 80792
# 95261
# 113435
# 127921
# 143106
# 156673
# 170356
# 183953
# 198022
# 213100
# 231785
#
# Disc length: 3295 seconds
# Revision: 0
# Processed by: cddbd v1.5.2PL0 Copyright (c) Steve Scherf et al.
# Submitted via: VisiTrax 2.11.3.279 - For more info visit www.synapsa.com
#
DISCID=e70cdd11
DTITLE=Various Artist - Promo Only Country - March 2015
DYEAR=2015
DGENRE=Country
TTITLE0=Denny Strickland - Swerve On
TTITLE1=Tim McGraw and Catherine Dunn - Diamond Rings And Old Bar Stools
TTITLE2=Brad Paisley - Crushin' It
TTITLE3=Keith Urban Feat. Eric Church - Raise 'Em Up
TTITLE4=Kip Moore - I'm To Blame
TTITLE5=Parmalee - Already Callin' You Mine
TTITLE6=Bryson Jennings - Young Nights
TTITLE7=Lee Ann Womack - Send It On Down
TTITLE8=Craig Wayne Boyd - My Baby's Got A Smile On Her Face
TTITLE9=Zac Brown Band - Homegrown
TTITLE10=Waterloo Revival - Hit The Road
TTITLE11=Austin Webb - All Country On You
TTITLE12=Jason Cassidy - Cowboy Girl
TTITLE13=Kenny Chesney - Wild Child
TTITLE14=Blackberry Smoke - Living In The Song
TTITLE15=Steve Azar Feat. Sophie Young - The Sky's Falling (Patti Jo's Prayer)
TTITLE16=Old Dominion - Break Up With Him
EXTD=
EXTT0=
EXTT1=
EXTT2=
EXTT3=
EXTT4=
EXTT5=
EXTT6=
EXTT7=
EXTT8=
EXTT9=
EXTT10=
EXTT11=
EXTT12=
EXTT13=
EXTT14=
EXTT15=
EXTT16=
PLAYORDER=
